<?xml version="1.0" standalone="no"?>
<!DOCTYPE svg PUBLIC "-//W3C//DTD SVG 20010904//EN"
 "http://www.w3.org/TR/2001/REC-SVG-20010904/DTD/svg10.dtd">
<svg version="1.0" xmlns="http://www.w3.org/2000/svg"
 width="343.000000pt" height="523.000000pt" viewBox="0 0 343.000000 523.000000"
 preserveAspectRatio="xMidYMid meet">

<g transform="translate(0.000000,523.000000) scale(0.100000,-0.100000)"
fill="#000000" stroke="none">
<path d="M923 4722 c-436 -173 -792 -317 -790 -318 1 -2 358 117 792 263 l790
266 764 -257 c420 -141 766 -255 767 -253 2 2 -328 136 -734 297 -405 161
-750 299 -767 305 -28 12 -80 -8 -822 -303z"/>
<path d="M3050 4196 c-78 -16 -273 -72 -315 -91 -16 -7 -43 -17 -60 -21 -56
-14 -280 -105 -367 -150 l-88 -45 -67 20 c-105 30 -276 45 -438 38 l-142 -7
-2 48 c-2 53 -21 75 -81 92 -45 12 -50 4 -50 -87 l0 -71 -72 -12 c-40 -6 -100
-18 -133 -27 -33 -8 -84 -19 -113 -23 -93 -14 -437 -126 -492 -161 -8 -5 -25
-13 -37 -19 -17 -7 -23 -18 -23 -40 0 -81 39 -93 152 -44 114 50 262 100 393
134 121 31 304 64 312 56 6 -6 -21 -243 -42 -371 -9 -49 -24 -145 -35 -212
-20 -122 -112 -542 -129 -585 -5 -13 -17 -52 -26 -88 -70 -264 -204 -640 -260
-730 -12 -19 -35 -60 -50 -90 -15 -30 -52 -88 -82 -128 -32 -43 -51 -77 -47
-85 4 -6 4 -9 -1 -5 -4 4 -35 -15 -68 -43 -75 -63 -117 -84 -191 -98 -66 -12
-176 0 -212 23 -27 19 -79 118 -96 186 -24 95 -16 295 16 428 57 232 182 481
323 644 35 40 63 77 63 81 0 5 -7 1 -16 -7 -21 -21 -27 -20 -15 3 6 10 40 42
76 71 95 76 85 88 -30 34 -62 -29 -130 -78 -130 -95 0 -7 -8 -13 -19 -15 -62
-9 -245 -290 -325 -499 -55 -145 -102 -374 -96 -475 9 -190 172 -425 337 -486
95 -35 136 -39 216 -19 41 11 85 27 97 37 13 10 27 18 32 18 4 0 36 26 71 58
46 42 61 62 56 75 -4 12 -1 17 9 17 21 0 67 43 67 63 0 9 6 20 14 24 8 4 24
28 37 53 13 25 26 47 30 50 12 9 59 113 59 132 0 11 4 17 8 14 5 -3 15 7 22
22 6 15 20 42 29 61 9 19 15 40 13 46 -1 7 5 18 13 25 8 7 15 25 15 40 0 15 7
33 16 41 8 7 13 21 11 31 -3 10 -1 18 5 18 5 0 8 8 6 18 -2 11 3 26 10 35 8 9
15 33 16 54 2 21 13 54 25 73 21 35 28 80 14 94 -4 4 -15 -13 -24 -36 -10 -24
-18 -38 -18 -32 -1 6 6 27 14 47 11 26 19 34 33 31 14 -4 20 4 28 35 11 42 4
68 -15 57 -6 -4 -11 -2 -11 3 0 6 9 11 19 11 20 0 31 18 31 51 0 10 4 19 9 19
9 0 22 46 27 99 2 19 8 39 14 45 13 13 13 39 0 31 -5 -3 -10 -1 -10 4 0 6 4
11 9 11 5 0 8 11 7 25 -1 28 -16 35 -16 8 0 -15 -2 -16 -10 -3 -7 12 -3 18 19
27 24 10 30 21 40 70 7 32 14 69 15 83 2 14 7 33 11 42 4 9 4 22 0 28 -4 6 -1
17 5 25 9 11 9 15 1 15 -6 0 -11 5 -11 10 0 6 6 10 14 10 8 0 15 8 15 18 1 30
28 172 35 179 3 3 6 -15 6 -41 0 -52 18 -104 47 -133 10 -10 26 -30 35 -45 28
-43 243 -195 363 -256 31 -16 121 -77 210 -143 102 -74 201 -183 245 -269 26
-50 30 -127 12 -195 -14 -50 -89 -166 -145 -223 -84 -87 -196 -172 -285 -217
-50 -25 -99 -48 -109 -50 -10 -2 -43 -11 -73 -20 -76 -21 -174 -22 -205 -1
-14 9 -25 20 -25 25 0 18 64 102 109 142 80 73 102 90 199 155 50 34 86 65 80
67 -10 4 -10 6 -1 6 7 1 19 17 28 37 8 19 19 33 25 29 5 -3 10 -1 10 4 0 6 8
11 18 11 26 0 65 43 51 57 -25 25 -183 -34 -321 -120 -121 -74 -196 -144 -234
-217 -25 -48 -29 -66 -29 -140 0 -100 20 -152 74 -187 67 -45 201 -25 367 52
101 48 137 72 129 85 -3 4 7 8 22 8 14 0 32 7 38 16 7 9 16 16 20 16 18 0 167
149 160 160 -3 6 3 10 14 10 11 0 22 8 25 18 3 9 17 29 30 43 13 15 37 51 53
80 24 47 29 69 33 162 3 59 2 107 -2 107 -5 0 -8 17 -8 38 0 46 -54 161 -109
234 -42 56 -175 180 -256 238 -73 52 -198 130 -211 130 -7 0 -14 7 -18 15 -3
8 -11 15 -19 15 -7 0 -24 11 -37 25 -13 14 -29 25 -35 25 -20 0 -178 119 -197
148 -31 47 -17 124 31 166 11 11 21 25 21 32 0 28 229 207 330 259 19 10 37
21 40 25 3 3 25 16 50 28 25 12 77 42 115 67 39 25 80 45 92 45 29 0 120 -56
134 -83 11 -19 12 -19 21 -2 14 25 -5 85 -37 115 -31 29 -31 35 0 36 13 1 44
11 67 23 94 45 320 124 453 157 146 37 278 52 359 40 l47 -7 -7 -37 c-4 -20
-13 -52 -20 -71 -8 -19 -12 -36 -9 -39 3 -3 30 7 60 23 60 30 72 51 61 108 -8
39 -71 133 -106 159 -34 25 -144 32 -230 14z m-1213 -272 c-11 -11 -75 -15
-81 -6 -3 5 16 9 42 11 25 1 43 -1 39 -5z m53 -4 c0 -5 -2 -10 -4 -10 -3 0 -8
5 -11 10 -3 6 -1 10 4 10 6 0 11 -4 11 -10z m99 -6 c2 -2 -12 -4 -33 -4 -22 0
-35 4 -31 10 5 9 52 4 64 -6z m-252 0 c-3 -3 -12 -4 -19 -1 -8 3 -5 6 6 6 11
1 17 -2 13 -5z m323 -6 c0 -4 -11 -8 -25 -8 -14 0 -25 4 -25 10 0 5 11 9 25 8
14 -1 25 -6 25 -10z m50 -8 c13 -9 13 -10 0 -10 -8 0 -22 5 -30 10 -13 9 -13
10 0 10 8 0 22 -5 30 -10z m219 6 c-2 -2 -15 -9 -29 -15 -24 -11 -24 -11 -6 3
16 13 49 24 35 12z m-896 -23 c-7 -2 -19 -2 -25 0 -7 3 -2 5 12 5 14 0 19 -2
13 -5z m-123 -16 c0 -7 -8 -13 -17 -14 -10 -1 -36 -4 -58 -7 -38 -5 -38 -5 8
8 27 8 51 17 55 20 8 9 12 7 12 -7z m69 9 c-12 -10 -60 -16 -54 -6 3 5 18 10
32 10 15 0 24 -2 22 -4z m524 -3 c-7 -2 -19 -2 -25 0 -7 3 -2 5 12 5 14 0 19
-2 13 -5z m182 -13 c3 -5 1 -10 -4 -10 -6 0 -11 5 -11 10 0 6 2 10 4 10 3 0 8
-4 11 -10z m-76 -26 c33 -4 61 -10 61 -13 0 -7 -63 -50 -100 -68 -14 -7 -34
-18 -45 -25 -11 -7 -42 -26 -70 -43 -27 -16 -54 -34 -60 -40 -5 -6 -22 -19
-37 -28 -31 -19 -37 -40 -12 -35 10 2 19 -1 20 -7 2 -5 -7 -10 -20 -10 -13 0
-22 3 -19 8 2 4 -1 7 -7 7 -6 0 -41 -32 -78 -71 -69 -72 -132 -169 -132 -203
0 -11 -2 -17 -5 -15 -2 3 2 54 11 115 8 60 19 150 25 199 10 98 26 206 31 211
16 15 333 28 437 18z m71 -48 c0 -3 -4 -8 -10 -11 -5 -3 -10 -1 -10 4 0 6 5
11 10 11 6 0 10 -2 10 -4z m-110 -66 c-14 -10 -27 -17 -29 -14 -6 5 31 33 44
33 6 1 -1 -8 -15 -19z m-50 -30 c0 -5 -8 -10 -17 -10 -15 0 -16 2 -3 10 19 12
20 12 20 0z m-56 -35 c-10 -8 -26 -14 -34 -14 -9 0 -6 4 6 9 12 5 25 14 29 20
4 6 10 9 13 6 3 -4 -3 -13 -14 -21z m-9 -35 c-3 -5 -12 -10 -18 -10 -7 0 -6 4
3 10 19 12 23 12 15 0z m-501 -554 c-3 -21 -8 -35 -11 -32 -2 2 -1 20 3 40 3
21 8 35 11 32 2 -2 1 -20 -3 -40z m-24 -126 c-7 -33 -15 -59 -17 -56 -2 2 1
31 8 65 7 33 15 58 17 56 3 -2 -1 -32 -8 -65z m57 -62 c-3 -8 -6 -5 -6 6 -1
11 2 17 5 13 3 -3 4 -12 1 -19z m-83 -52 c-3 -21 -8 -35 -11 -32 -2 2 -1 20 3
40 3 21 8 35 11 32 2 -2 1 -20 -3 -40z m73 2 c-3 -8 -6 -5 -6 6 -1 11 2 17 5
13 3 -3 4 -12 1 -19z m20 0 c-3 -8 -6 -5 -6 6 -1 11 2 17 5 13 3 -3 4 -12 1
-19z m-7 -22 c0 -2 -7 -7 -16 -10 -8 -3 -12 -2 -9 4 6 10 25 14 25 6z m-103
-48 c-3 -8 -6 -5 -6 6 -1 11 2 17 5 13 3 -3 4 -12 1 -19z m12 -82 c-9 -8 -10
-7 -5 7 3 10 7 26 7 35 1 9 4 6 6 -7 3 -13 -1 -28 -8 -35z m-35 -28 c-6 -41
-53 -215 -94 -346 -11 -34 -20 -68 -20 -75 0 -11 -67 -191 -101 -272 -6 -16
-13 -34 -15 -40 -7 -26 -58 -141 -78 -178 -47 -86 -90 -156 -94 -153 -3 4 50
120 68 146 16 25 87 183 129 290 41 102 174 533 192 618 13 63 22 69 13 10z
m83 36 c-3 -3 -12 -4 -19 -1 -8 3 -5 6 6 6 11 1 17 -2 13 -5z m-10 -46 c-3 -7
-5 -2 -5 12 0 14 2 19 5 13 2 -7 2 -19 0 -25z m873 -3 c7 -8 8 -15 2 -15 -5 0
-15 7 -22 15 -7 8 -8 15 -2 15 5 0 15 -7 22 -15z m80 -69 c22 -27 -5 -17 -31
10 -21 24 -22 26 -3 16 11 -6 26 -18 34 -26z m-1930 4 c-6 -11 -13 -20 -16
-20 -2 0 0 9 6 20 6 11 13 20 16 20 2 0 0 -9 -6 -20z m945 -50 c3 -5 1 -10 -4
-10 -6 0 -11 5 -11 10 0 6 2 10 4 10 3 0 8 -4 11 -10z m-63 -62 c-7 -7 -12 -8
-12 -2 0 14 12 26 19 19 2 -3 -1 -11 -7 -17z m-22 -83 c-6 -15 -13 -26 -15
-23 -3 2 1 19 8 37 6 17 13 28 15 23 1 -5 -2 -22 -8 -37z m-969 12 c-10 -9
-11 -8 -5 6 3 10 9 15 12 12 3 -3 0 -11 -7 -18z m-23 -42 c-6 -14 -13 -23 -15
-21 -5 5 15 46 22 46 3 0 -1 -11 -7 -25z m42 -55 c0 -5 -5 -10 -11 -10 -5 0
-7 5 -4 10 3 6 8 10 11 10 2 0 4 -4 4 -10z m-89 -47 c-12 -20 -14 -14 -5 12 4
9 9 14 11 11 3 -2 0 -13 -6 -23z m-22 -62 c-6 -18 -13 -30 -15 -28 -2 2 1 18
7 36 6 18 13 30 15 28 2 -2 -1 -18 -7 -36z m988 -33 c-3 -8 -6 -5 -6 6 -1 11
2 17 5 13 3 -3 4 -12 1 -19z m878 -8 c-3 -5 -12 -10 -18 -10 -7 0 -6 4 3 10
19 12 23 12 15 0z m-1901 -64 c-3 -15 -8 -25 -11 -23 -2 3 -1 17 3 31 3 15 8
25 11 23 2 -3 1 -17 -3 -31z m1796 16 c0 -5 -11 -14 -25 -20 -32 -15 -35 -15
-35 -2 0 6 9 10 20 10 11 0 20 5 20 10 0 6 5 10 10 10 6 0 10 -4 10 -8z m46
-19 c-2 -11 -13 -19 -29 -21 -15 -2 -27 -8 -27 -13 0 -6 -17 -18 -38 -27 -20
-9 -52 -28 -70 -41 -18 -13 -36 -21 -38 -18 -3 3 5 11 18 17 12 7 32 20 43 30
11 10 44 30 73 45 29 15 55 31 58 36 8 14 12 11 10 -8z m-855 -36 c-10 -9 -11
-8 -5 6 3 10 9 15 12 12 3 -3 0 -11 -7 -18z m716 3 c-14 -11 -29 -20 -33 -20
-4 0 1 9 11 20 10 11 25 20 33 20 9 0 6 -7 -11 -20z m-1720 -22 c-3 -8 -6 -5
-6 6 -1 11 2 17 5 13 3 -3 4 -12 1 -19z m1047 -3 c-4 -8 -8 -15 -10 -15 -2 0
-4 7 -4 15 0 8 4 15 10 15 5 0 7 -7 4 -15z m626 0 c0 -2 -21 -18 -47 -36 -25
-18 -43 -27 -39 -20 4 6 24 23 44 36 41 26 42 27 42 20z m-687 -20 c-3 -9 -8
-14 -10 -11 -3 3 -2 9 2 15 9 16 15 13 8 -4z m637 -65 c0 -5 -10 -15 -22 -21
l-23 -12 20 21 c23 24 25 25 25 12z m-675 -40 c-4 -12 -9 -19 -12 -17 -3 3 -2
15 2 27 4 12 9 19 12 17 3 -3 2 -15 -2 -27z m47 -2 c-7 -7 -12 -8 -12 -2 0 14
12 26 19 19 2 -3 -1 -11 -7 -17z m-80 -70 c-7 -7 -12 -8 -12 -2 0 14 12 26 19
19 2 -3 -1 -11 -7 -17z m-32 -71 c-12 -26 -23 -47 -26 -47 -2 0 3 17 12 38 9
20 18 43 21 50 3 7 7 11 9 9 2 -2 -5 -25 -16 -50z m1190 19 c0 -3 -4 -8 -10
-11 -5 -3 -10 -1 -10 4 0 6 5 11 10 11 6 0 10 -2 10 -4z m-110 -40 c0 -3 -4
-8 -10 -11 -5 -3 -10 -1 -10 4 0 6 5 11 10 11 6 0 10 -2 10 -4z m-40 -26 c-8
-5 -19 -10 -25 -10 -5 0 -3 5 5 10 8 5 20 10 25 10 6 0 3 -5 -5 -10z m-65 -35
c-16 -14 -34 -25 -40 -25 -9 0 55 49 65 49 3 0 -8 -11 -25 -24z m-1039 -41
c-4 -9 -9 -15 -11 -12 -3 3 -3 13 1 22 4 9 9 15 11 12 3 -3 3 -13 -1 -22z
m832 -17 c-16 -16 -58 -28 -58 -17 0 5 12 13 28 18 38 14 45 14 30 -1z m92 -1
c0 -3 -4 -8 -10 -11 -5 -3 -10 -1 -10 4 0 6 5 11 10 11 6 0 10 -2 10 -4z
m-160 -21 c0 -8 -7 -15 -15 -15 -8 0 -15 7 -15 15 0 8 7 15 15 15 8 0 15 -7
15 -15z m120 -5 c-8 -5 -24 -9 -35 -9 l-20 0 20 9 c11 5 27 9 35 9 13 1 13 0
0 -9z m-1020 -124 c0 -2 -7 -7 -16 -10 -8 -3 -12 -2 -9 4 6 10 25 14 25 6z
m10 -21 c0 -2 -10 -9 -22 -15 -22 -11 -22 -10 -4 4 21 17 26 19 26 11z m-55
-25 c-3 -5 -12 -10 -18 -10 -7 0 -6 4 3 10 19 12 23 12 15 0z m-29 -42 c4 -7
4 -10 -1 -6 -4 4 -14 3 -22 -3 -8 -8 -13 -8 -13 -1 0 6 6 13 13 15 6 3 13 6
14 6 1 1 5 -5 9 -11z"/>
<path d="M2481 2194 c0 -11 3 -14 6 -6 3 7 2 16 -1 19 -3 4 -6 -2 -5 -13z"/>
<path d="M2525 479 c-497 -229 -808 -367 -820 -364 -11 2 -366 153 -789 335
-424 181 -771 328 -773 327 -4 -5 1569 -772 1577 -770 31 9 1634 848 1610 842
-3 -1 -365 -167 -805 -370z"/>
</g>
</svg>
